<svg width="32" height="32" viewBox="0 0 32 32" fill="none" xmlns="http://www.w3.org/2000/svg">
<circle cx="16" cy="16" r="16" fill="#181818"/>
<path fill-rule="evenodd" clip-rule="evenodd" d="M16.0001 5.33325C13.1031 5.33325 12.7399 5.34553 11.6022 5.39744C10.4668 5.44923 9.69145 5.62956 9.01297 5.89326C8.31154 6.16581 7.71669 6.53054 7.12365 7.12353C6.53066 7.71656 6.16593 8.31142 5.89338 9.01285C5.62968 9.69132 5.44935 10.4667 5.39756 11.6021C5.34565 12.7398 5.33337 13.103 5.33337 15.9999C5.33337 18.8968 5.34565 19.2601 5.39756 20.3978C5.44935 21.5331 5.62968 22.3085 5.89338 22.987C6.16593 23.6884 6.53066 24.2833 7.12365 24.8763C7.71669 25.4693 8.31154 25.834 9.01297 26.1066C9.69145 26.3703 10.4668 26.5506 11.6022 26.6024C12.7399 26.6543 13.1031 26.6666 16.0001 26.6666C18.8969 26.6666 19.2602 26.6543 20.3979 26.6024C21.5332 26.5506 22.3086 26.3703 22.9871 26.1066C23.6885 25.834 24.2834 25.4693 24.8764 24.8763C25.4694 24.2833 25.8341 23.6884 26.1067 22.987C26.3704 22.3085 26.5507 21.5331 26.6025 20.3978C26.6544 19.2601 26.6667 18.8968 26.6667 15.9999C26.6667 13.103 26.6544 12.7398 26.6025 11.6021C26.5507 10.4667 26.3704 9.69132 26.1067 9.01285C25.8341 8.31142 25.4694 7.71656 24.8764 7.12353C24.2834 6.53054 23.6885 6.16581 22.9871 5.89326C22.3086 5.62956 21.5332 5.44923 20.3979 5.39744C19.2602 5.34553 18.8969 5.33325 16.0001 5.33325ZM16.0001 7.25517C18.8482 7.25517 19.1855 7.26605 20.3103 7.31737C21.3503 7.36479 21.9151 7.53856 22.2909 7.68464C22.7888 7.87814 23.1442 8.10928 23.5174 8.48256C23.8907 8.8558 24.1218 9.21113 24.3153 9.70902C24.4614 10.0849 24.6352 10.6497 24.6826 11.6897C24.7339 12.8144 24.7448 13.1518 24.7448 15.9999C24.7448 18.848 24.7339 19.1854 24.6826 20.3102C24.6352 21.3502 24.4614 21.9149 24.3153 22.2908C24.1218 22.7887 23.8907 23.144 23.5174 23.5173C23.1442 23.8906 22.7888 24.1217 22.2909 24.3152C21.9151 24.4613 21.3503 24.635 20.3103 24.6825C19.1857 24.7338 18.8484 24.7447 16.0001 24.7447C13.1517 24.7447 12.8144 24.7338 11.6898 24.6825C10.6498 24.635 10.085 24.4613 9.70915 24.3152C9.21125 24.1217 8.85592 23.8906 8.48268 23.5173C8.10945 23.144 7.87826 22.7887 7.68476 22.2908C7.53868 21.9149 7.36491 21.3502 7.31749 20.3102C7.26617 19.1854 7.25529 18.848 7.25529 15.9999C7.25529 13.1518 7.26617 12.8144 7.31749 11.6897C7.36491 10.6497 7.53868 10.0849 7.68476 9.70902C7.87826 9.21113 8.1094 8.8558 8.48268 8.48256C8.85592 8.10928 9.21125 7.87814 9.70915 7.68464C10.085 7.53856 10.6498 7.36479 11.6898 7.31737C12.8145 7.26605 13.1519 7.25517 16.0001 7.25517Z" fill="url(#paint0_linear_372_966)"/>
<path fill-rule="evenodd" clip-rule="evenodd" d="M16.0001 19.5555C14.0364 19.5555 12.4445 17.9636 12.4445 16C12.4445 14.0362 14.0364 12.4444 16.0001 12.4444C17.9637 12.4444 19.5556 14.0362 19.5556 16C19.5556 17.9636 17.9637 19.5555 16.0001 19.5555ZM16.0001 10.5225C12.9749 10.5225 10.5226 12.9748 10.5226 16C10.5226 19.0251 12.9749 21.4774 16.0001 21.4774C19.0252 21.4774 21.4775 19.0251 21.4775 16C21.4775 12.9748 19.0252 10.5225 16.0001 10.5225Z" fill="url(#paint1_linear_372_966)"/>
<path fill-rule="evenodd" clip-rule="evenodd" d="M22.9739 10.3061C22.9739 11.0131 22.4009 11.5861 21.6939 11.5861C20.987 11.5861 20.4139 11.0131 20.4139 10.3061C20.4139 9.59921 20.987 9.02612 21.6939 9.02612C22.4009 9.02612 22.9739 9.59921 22.9739 10.3061Z" fill="url(#paint2_linear_372_966)"/>
<defs>
<linearGradient id="paint0_linear_372_966" x1="16" y1="37.3333" x2="37.3334" y2="15.9999" gradientUnits="userSpaceOnUse">
<stop stop-color="#FFD522"/>
<stop offset="0.497382" stop-color="#F1000B"/>
<stop offset="1" stop-color="#B900B3"/>
</linearGradient>
<linearGradient id="paint1_linear_372_966" x1="16.0001" y1="26.9549" x2="26.955" y2="15.9999" gradientUnits="userSpaceOnUse">
<stop stop-color="#FFD522"/>
<stop offset="0.497382" stop-color="#F1000B"/>
<stop offset="1" stop-color="#B900B3"/>
</linearGradient>
<linearGradient id="paint2_linear_372_966" x1="21.6939" y1="12.8661" x2="24.2539" y2="10.3061" gradientUnits="userSpaceOnUse">
<stop stop-color="#FFD522"/>
<stop offset="0.497382" stop-color="#F1000B"/>
<stop offset="1" stop-color="#B900B3"/>
</linearGradient>
</defs>
</svg>
