<svg width="32" height="32" viewBox="0 0 32 32" fill="none" xmlns="http://www.w3.org/2000/svg">
<circle cx="16" cy="16" r="16" fill="#181818"/>
<path d="M24.6652 23.3332H21.3525V18.1362C21.3525 16.8969 21.3304 15.3015 19.6295 15.3015C17.9041 15.3015 17.6401 16.6517 17.6401 18.0459V23.3328H14.3274V12.6456H17.5076V14.1061H17.5522C18.1997 12.997 19.4081 12.3322 20.69 12.3798C24.0475 12.3798 24.6666 14.5922 24.6666 17.4704L24.6652 23.3332Z" fill="#0A66C2"/>
<path d="M10.5895 11.1848C10.5893 11.1848 10.5892 11.1848 10.5891 11.1848C9.53445 11.1848 8.66663 10.3155 8.66663 9.25907C8.66663 8.20259 9.53445 7.33325 10.5891 7.33325C11.6436 7.33325 12.5113 8.20239 12.5115 9.25867C12.5115 9.25877 12.5115 9.25887 12.5115 9.25907C12.5115 10.3153 11.6439 11.1847 10.5895 11.1848Z" fill="#0A66C2"/>
<path d="M12.2459 23.3333H8.92969V12.6458H12.2459V23.3333Z" fill="#0A66C2"/>
</svg>
