<svg width="32" height="32" viewBox="0 0 32 32" fill="none" xmlns="http://www.w3.org/2000/svg">
<circle cx="16" cy="16" r="16" fill="#181818"/>
<path d="M24.4827 11.6483C24.4957 11.8364 24.4957 12.0244 24.4957 12.2142C24.4957 17.9971 20.0929 24.6666 12.0423 24.6666V24.6631C9.66418 24.6666 7.33541 23.9854 5.33337 22.7011C5.67918 22.7427 6.02672 22.7635 6.37512 22.7644C8.34595 22.7661 10.2605 22.1049 11.8109 20.8873C9.93805 20.8518 8.29569 19.6307 7.72194 17.8481C8.37802 17.9746 9.05403 17.9486 9.69798 17.7727C7.65608 17.3602 6.18705 15.5663 6.18705 13.483C6.18705 13.4639 6.18705 13.4457 6.18705 13.4275C6.79546 13.7663 7.47667 13.9544 8.17349 13.9752C6.25032 12.69 5.65751 10.1318 6.81886 8.13163C9.04103 10.8658 12.3197 12.528 15.8393 12.7039C15.4865 11.1838 15.9684 9.591 17.1055 8.52247C18.8683 6.86551 21.6408 6.95044 23.2979 8.71226C24.2781 8.519 25.2176 8.15936 26.0774 7.64979C25.7506 8.66286 25.0668 9.52341 24.1533 10.0702C25.0209 9.96798 25.8685 9.73573 26.6667 9.38128C26.0791 10.2618 25.339 11.0287 24.4827 11.6483Z" fill="#1D9BF0"/>
</svg>
